<svg xmlns="http://www.w3.org/2000/svg" viewBox="0 0 155 201"><defs><style>.cls-1{fill:#74cc9f;}.cls-2{font-size:41.19px;fill:#fff;font-family:Montserrat-Bold, Montserrat;font-weight:700;}</style></defs><title>Design_page</title><g id="_00_Home_Page" data-name="00_Home_Page"><path class="cls-1" d="M104.14,14H44.4A11.27,11.27,0,0,0,33.15,25.26V154.09A11.27,11.27,0,0,0,44.4,165.34h59.74a11.27,11.27,0,0,0,11.26-11.26V25.26A11.27,11.27,0,0,0,104.14,14ZM36.57,38.49H112v102.3H36.57ZM44.4,17.42h59.74A7.84,7.84,0,0,1,112,25.26v9.81H36.57V25.26A7.84,7.84,0,0,1,44.4,17.42Zm59.74,144.49H44.4a7.84,7.84,0,0,1-7.83-7.83v-9.88H112v9.88A7.84,7.84,0,0,1,104.14,161.92Z"/><path class="cls-1" d="M66.84,28.08H81.69a1.71,1.71,0,1,0,0-3.42H66.84a1.71,1.71,0,1,0,0,3.42Z"/><path class="cls-1" d="M140.29,41.44h-3v-3a1.71,1.71,0,1,0-3.42,0v3h-3a1.71,1.71,0,0,0,0,3.42h3v3a1.71,1.71,0,1,0,3.42,0v-3h3a1.71,1.71,0,0,0,0-3.42Z"/><path class="cls-1" d="M75.79,151.19h-3a1.71,1.71,0,1,0,0,3.42h3a1.71,1.71,0,1,0,0-3.42Z"/><path class="cls-1" d="M123.76,27.49h0A1.71,1.71,0,0,0,122,29.22l0,3A1.71,1.71,0,0,0,123.79,34h0a1.71,1.71,0,0,0,1.69-1.73l0-3A1.71,1.71,0,0,0,123.76,27.49Z"/><path class="cls-1" d="M123.76,121.44h0a1.71,1.71,0,0,0-1.69,1.73l0,3a1.71,1.71,0,0,0,1.71,1.69h0a1.71,1.71,0,0,0,1.69-1.73l0-3A1.71,1.71,0,0,0,123.76,121.44Z"/><path class="cls-1" d="M130.28,60.44h0a1.71,1.71,0,0,0-1.69,1.73l0,3a1.71,1.71,0,0,0,1.71,1.69h0A1.71,1.71,0,0,0,132,65.18l0-3A1.71,1.71,0,0,0,130.28,60.44Z"/><path class="cls-1" d="M24.73,133.36h0A1.71,1.71,0,0,0,23,135.09l0,3a1.71,1.71,0,0,0,1.71,1.69h0a1.71,1.71,0,0,0,1.69-1.73l0-3A1.71,1.71,0,0,0,24.73,133.36Z"/><path class="cls-1" d="M24.73,52h0A1.71,1.71,0,0,0,23,53.69l0,3a1.71,1.71,0,0,0,1.71,1.69h0a1.71,1.71,0,0,0,1.69-1.73l0-3A1.71,1.71,0,0,0,24.73,52Z"/><path class="cls-1" d="M10.81,98h0a1.71,1.71,0,0,0-1.69,1.73l0,3a1.71,1.71,0,0,0,1.71,1.69h0a1.71,1.71,0,0,0,1.69-1.73l0-3A1.71,1.71,0,0,0,10.81,98Z"/><path class="cls-1" d="M24.75,122.5a1.71,1.71,0,1,0,0-3.42H22.54v-2.21a1.71,1.71,0,0,0-3.42,0v2.21H16.91a1.71,1.71,0,1,0,0,3.42h2.21v2.21a1.71,1.71,0,1,0,3.42,0V122.5Z"/><path class="cls-1" d="M96.26,117.85l-7.81,7.81-3.91-3.91a1.71,1.71,0,1,0-2.42,2.42l5.12,5.12a1.71,1.71,0,0,0,2.42,0l9-9a1.71,1.71,0,0,0-2.42-2.42Z"/><path class="cls-1" d="M65.65,118.58a1.71,1.71,0,0,0-2.42,0l-2.9,2.9-2.9-2.9A1.71,1.71,0,0,0,55,121l2.9,2.9L55,126.8a1.71,1.71,0,0,0,2.42,2.42l2.9-2.9,2.9,2.9a1.71,1.71,0,0,0,2.42-2.42l-2.9-2.9,2.9-2.9A1.71,1.71,0,0,0,65.65,118.58Z"/><path class="cls-1" d="M105.86,76.77a31.59,31.59,0,1,0-31.59,31.59A31.63,31.63,0,0,0,105.86,76.77ZM74.27,48.6A28.15,28.15,0,0,1,96.73,93.75,27.54,27.54,0,0,0,80.67,80.54a12.58,12.58,0,1,0-12.79,0A27.54,27.54,0,0,0,51.8,93.75,28.15,28.15,0,0,1,74.27,48.6ZM65.12,69.71a9.15,9.15,0,1,1,9.15,9.15A9.16,9.16,0,0,1,65.12,69.71Zm9.15,35.23A28.08,28.08,0,0,1,54.2,96.52c4.27-8.32,11.91-13.47,20.07-13.47s15.8,5.15,20.07,13.47A28.08,28.08,0,0,1,74.27,104.94Z"/><rect class="cls-1" x="97.76" y="148.89" width="35.09" height="35.09"/><text class="cls-2" transform="translate(104.78 179.23)">+</text></g></svg>