<svg xmlns="http://www.w3.org/2000/svg" viewBox="0 0 155 201"><defs><style>.cls-1{fill:#74cc9f;}.cls-2{font-size:40.18px;fill:#fff;font-family:Montserrat-Bold, Montserrat;font-weight:700;}</style></defs><title>Design_page</title><g id="_00_Home_Page" data-name="00_Home_Page"><path class="cls-1" d="M105.89,14H45.05A11.48,11.48,0,0,0,33.59,25.46V156.67a11.48,11.48,0,0,0,11.46,11.46h60.84a11.48,11.48,0,0,0,11.46-11.46V25.46A11.48,11.48,0,0,0,105.89,14ZM37.08,38.94h76.79V143.12H37.08Zm8-21.45h60.84a8,8,0,0,1,8,8v10H37.08v-10A8,8,0,0,1,45.05,17.49Zm60.84,147.15H45.05a8,8,0,0,1-8-8V146.61h76.79v10.06A8,8,0,0,1,105.89,164.64Z"/><path class="cls-1" d="M67.91,28.34H83a1.74,1.74,0,1,0,0-3.49H67.91a1.74,1.74,0,0,0,0,3.49Z"/><path class="cls-1" d="M142.72,42h-3.1v-3.1a1.74,1.74,0,0,0-3.49,0V42H133a1.74,1.74,0,1,0,0,3.49h3.1v3.1a1.74,1.74,0,0,0,3.49,0v-3.1h3.1a1.74,1.74,0,1,0,0-3.49Z"/><path class="cls-1" d="M77,153.72h-3.1a1.74,1.74,0,0,0,0,3.49H77a1.74,1.74,0,0,0,0-3.49Z"/><path class="cls-1" d="M125.88,27.74h0a1.74,1.74,0,0,0-1.72,1.76l0,3.1a1.74,1.74,0,0,0,1.74,1.72h0a1.74,1.74,0,0,0,1.72-1.76l0-3.1A1.74,1.74,0,0,0,125.88,27.74Z"/><path class="cls-1" d="M125.88,123.42h0a1.74,1.74,0,0,0-1.72,1.76l0,3.1a1.74,1.74,0,0,0,1.74,1.72h0a1.74,1.74,0,0,0,1.72-1.76l0-3.1A1.74,1.74,0,0,0,125.88,123.42Z"/><path class="cls-1" d="M132.52,61.3h0a1.74,1.74,0,0,0-1.72,1.76l0,3.1a1.74,1.74,0,0,0,1.74,1.72h0a1.74,1.74,0,0,0,1.72-1.76l0-3.1A1.74,1.74,0,0,0,132.52,61.3Z"/><path class="cls-1" d="M25,135.56h0a1.74,1.74,0,0,0-1.72,1.76l0,3.1a1.74,1.74,0,0,0,1.74,1.72h0a1.74,1.74,0,0,0,1.72-1.76l0-3.1A1.74,1.74,0,0,0,25,135.56Z"/><path class="cls-1" d="M25,52.66h0a1.74,1.74,0,0,0-1.72,1.76l0,3.1a1.74,1.74,0,0,0,1.74,1.72h0a1.74,1.74,0,0,0,1.72-1.76l0-3.1A1.74,1.74,0,0,0,25,52.66Z"/><path class="cls-1" d="M10.84,99.58h0a1.74,1.74,0,0,0-1.72,1.76l0,3.1a1.74,1.74,0,0,0,1.74,1.72h0a1.74,1.74,0,0,0,1.72-1.76l0-3.1A1.74,1.74,0,0,0,10.84,99.58Z"/><path class="cls-1" d="M25,124.5A1.74,1.74,0,0,0,25,121H22.79v-2.25a1.74,1.74,0,0,0-3.49,0V121H17.06a1.74,1.74,0,1,0,0,3.49h2.25v2.25a1.74,1.74,0,1,0,3.49,0V124.5Z"/><path class="cls-1" d="M108.22,58.6H66.77A1.38,1.38,0,0,0,65.39,60v20.6A1.38,1.38,0,0,0,66.77,82h41.45a1.38,1.38,0,0,0,1.38-1.38V60A1.38,1.38,0,0,0,108.22,58.6Zm-1.38,20.6H68.15V61.36h38.69Z"/><path class="cls-1" d="M72,67.5h29.87a1.38,1.38,0,0,0,0-2.76H72a1.38,1.38,0,0,0,0,2.76Z"/><path class="cls-1" d="M72,74.52H89a1.38,1.38,0,0,0,0-2.76H72a1.38,1.38,0,0,0,0,2.76Z"/><path class="cls-1" d="M61.88,59H41.71a1.22,1.22,0,0,0-1.12,1.3V79.7A1.22,1.22,0,0,0,41.71,81H61.88A1.22,1.22,0,0,0,63,79.7V60.3A1.22,1.22,0,0,0,61.88,59ZM60.76,78.4H42.82V61.6H60.76Z"/><path class="cls-1" d="M109.85,106.62V86a1.38,1.38,0,0,0-1.38-1.38H67A1.38,1.38,0,0,0,65.64,86v20.6A1.38,1.38,0,0,0,67,108h41.45A1.38,1.38,0,0,0,109.85,106.62Zm-2.76-1.38H68.4V87.4h38.69Z"/><path class="cls-1" d="M72.29,93.54h29.87a1.38,1.38,0,0,0,0-2.76H72.29a1.38,1.38,0,1,0,0,2.76Z"/><path class="cls-1" d="M72.29,100.56h9.63a1.38,1.38,0,0,0,0-2.76H72.29a1.38,1.38,0,0,0,0,2.76Z"/><path class="cls-1" d="M61.88,85H41.71a1.22,1.22,0,0,0-1.12,1.3v19.4a1.22,1.22,0,0,0,1.12,1.3H61.88A1.22,1.22,0,0,0,63,105.7V86.3A1.22,1.22,0,0,0,61.88,85Zm-1.12,19.4H42.82V87.6H60.76Z"/><path class="cls-1" d="M108.22,110.6H66.77A1.38,1.38,0,0,0,65.39,112v20.6A1.38,1.38,0,0,0,66.77,134h41.45a1.38,1.38,0,0,0,1.38-1.38V112A1.38,1.38,0,0,0,108.22,110.6Zm-1.38,20.6H68.15V113.36h38.69Z"/><path class="cls-1" d="M72,119.5h29.87a1.38,1.38,0,0,0,0-2.76H72a1.38,1.38,0,1,0,0,2.76Z"/><path class="cls-1" d="M72,126.52H89a1.38,1.38,0,1,0,0-2.76H72a1.38,1.38,0,1,0,0,2.76Z"/><path class="cls-1" d="M61.88,111H41.71a1.22,1.22,0,0,0-1.12,1.3v19.4a1.22,1.22,0,0,0,1.12,1.3H61.88A1.22,1.22,0,0,0,63,131.7V112.3A1.22,1.22,0,0,0,61.88,111Zm-1.12,19.4H42.82V113.6H60.76Z"/><rect class="cls-1" x="92.84" y="149.6" width="34.23" height="34.23"/><text class="cls-2" transform="translate(99.69 179.21)">+</text></g></svg>