<svg xmlns="http://www.w3.org/2000/svg" viewBox="0 0 155 201"><defs><style>.cls-1{fill:#74cc9f;}.cls-2{fill:#fff;}</style></defs><title>Design_page</title><g id="_00_Home_Page" data-name="00_Home_Page"><path class="cls-1" d="M65.72,28.13H80.63a1.72,1.72,0,0,0,0-3.44H65.72a1.72,1.72,0,0,0,0,3.44Z"/><path class="cls-1" d="M139.46,41.55H136.4V38.49a1.72,1.72,0,1,0-3.44,0v3.06H129.9a1.72,1.72,0,0,0,0,3.44H133v3.06a1.72,1.72,0,0,0,3.44,0V45h3.06a1.72,1.72,0,0,0,0-3.44Z"/><path class="cls-1" d="M74.7,151.73H71.64a1.72,1.72,0,1,0,0,3.44H74.7a1.72,1.72,0,1,0,0-3.44Z"/><path class="cls-1" d="M122.86,27.54h0a1.72,1.72,0,0,0-1.7,1.74l0,3.06a1.72,1.72,0,0,0,1.72,1.7h0a1.72,1.72,0,0,0,1.7-1.74l0-3.06A1.72,1.72,0,0,0,122.86,27.54Z"/><path class="cls-1" d="M122.86,121.86h0a1.72,1.72,0,0,0-1.7,1.74l0,3.06a1.72,1.72,0,0,0,1.72,1.7h0a1.72,1.72,0,0,0,1.7-1.74l0-3.06A1.72,1.72,0,0,0,122.86,121.86Z"/><path class="cls-1" d="M129.38,60.63a1.72,1.72,0,0,0-1.7,1.74l0,3.06a1.72,1.72,0,0,0,1.72,1.7h0a1.72,1.72,0,0,0,1.7-1.74l0-3.06A1.71,1.71,0,0,0,129.38,60.63Z"/><path class="cls-1" d="M23.44,133.83h0a1.72,1.72,0,0,0-1.7,1.74l0,3.06a1.72,1.72,0,0,0,1.72,1.7h0a1.72,1.72,0,0,0,1.7-1.74l0-3.06A1.72,1.72,0,0,0,23.44,133.83Z"/><path class="cls-1" d="M23.44,52.11h0a1.72,1.72,0,0,0-1.7,1.74l0,3.06a1.72,1.72,0,0,0,1.72,1.7h0a1.72,1.72,0,0,0,1.7-1.74l0-3.06A1.72,1.72,0,0,0,23.44,52.11Z"/><path class="cls-1" d="M9.46,98.37h0a1.72,1.72,0,0,0-1.7,1.74l0,3.06a1.72,1.72,0,0,0,1.72,1.7h0a1.72,1.72,0,0,0,1.7-1.74l0-3.06A1.72,1.72,0,0,0,9.46,98.37Z"/><path class="cls-1" d="M23.46,122.93a1.72,1.72,0,1,0,0-3.44H21.24v-2.21a1.72,1.72,0,0,0-3.44,0v2.21H15.59a1.72,1.72,0,1,0,0,3.44H17.8v2.21a1.72,1.72,0,1,0,3.44,0v-2.21Z"/><path class="cls-1" d="M73.18,62.16a8.37,8.37,0,1,0,8.37,8.37A8.38,8.38,0,0,0,73.18,62.16Zm0,13.31a4.93,4.93,0,1,1,4.93-4.93A4.94,4.94,0,0,1,73.18,75.46Z"/><path class="cls-1" d="M114.46,129.6V25.3A11.31,11.31,0,0,0,103.16,14h-60a11.31,11.31,0,0,0-11.3,11.3V154.64a11.31,11.31,0,0,0,11.3,11.3h60a11.31,11.31,0,0,0,11.3-11.3v-25S114.46,129.6,114.46,129.6ZM73.18,103c-4.9-9-13.81-26.49-13.81-32.47a13.81,13.81,0,1,1,27.61,0C87,76.51,78.08,94,73.18,103Zm-1.5,4.39a1.72,1.72,0,0,0,3,0c.21-.36,1.88-3.34,4.07-7.51H111V103H90.39l-.09,0-.07,0-.1,0h-.06l-.1,0-.06,0-.08,0-.07,0-.06,0-.07.06-.05,0-.07.07,0,0-.07.07,0,.06-.05.07,0,.07,0,.06,0,.09,0,.06,0,.09,0,.06,0,.09,0,.08,0,.08v.16s0,.07,0,.11v0s0,0,0,0,0,.07,0,.11V105l0,.09,0,.07,0,.1v0L92,113H54.05l3.78-13.12h9.78C69.8,104,71.48,107,71.68,107.39ZM111,113H95.62l-2.46-6.59H111Zm-60.54,0H35.32V99.88H54.25Zm-15.15,3.44H49.49l-3.4,11.83H35.32Zm13.59,14.4a1.71,1.71,0,0,0,.23-.79l3.92-13.61H81.4l3.54,18.26H47.81Zm36-14.4h18.92a1.72,1.72,0,0,0,.17.47l3.91,7.31H86.41Zm22.74,0H111v6.31Zm3.37-20H80.53c4.48-8.81,9.9-20.56,9.9-25.91a17.24,17.24,0,0,0-34.49,0c0,5.34,5.42,17.09,9.9,25.91H35.32V38.58H111ZM35.32,131.69h9.77l-2.76,9.59h-7Zm11.49,6.44H85.61l.61,3.15H45.91Zm42.9,3.15-2.64-13.63h22.67L111,130v11.25ZM43.19,17.44h60A7.87,7.87,0,0,1,111,25.3v9.84H35.32V25.3A7.87,7.87,0,0,1,43.19,17.44Zm60,145.06h-60a7.87,7.87,0,0,1-7.86-7.86v-9.92H111v9.92A7.87,7.87,0,0,1,103.16,162.5Z"/><rect class="cls-1" x="97.09" y="149.29" width="34.76" height="34.76"/><path class="cls-2" d="M123.55,168.33h-6.77v6.77h-4.61v-6.77h-6.81v-4.65h6.81v-6.81h4.61v6.81h6.77Z"/></g></svg>