<svg xmlns="http://www.w3.org/2000/svg" viewBox="0 0 130 36"><defs><style>.cls-1{fill:#949494;}</style></defs><title>Design_page</title><g id="_00_Home_Page" data-name="00_Home_Page"><path class="cls-1" d="M9,16.85l.18.23h9.35l.37.15a23.3,23.3,0,0,0,3.45,1,5.37,5.37,0,0,1,1.54.53.63.63,0,0,1,.28.62v.24H25.4v-.24a1.8,1.8,0,0,0-.85-1.64,6.38,6.38,0,0,0-1.91-.68,22.18,22.18,0,0,1-3.27-.94l-.3-.12v-.12h-.26a5.6,5.6,0,0,1-1.26-.77A2.5,2.5,0,0,1,16.78,14a4.45,4.45,0,0,1-.21-1.43,3.06,3.06,0,0,1,.28-1.29,2.8,2.8,0,0,1,.88-1,5.14,5.14,0,0,1,1.69-.79,9.89,9.89,0,0,1,2.67-.31,6.2,6.2,0,0,1,4.1,1.1,3.77,3.77,0,0,1,1,1.28l.1.22,1.08-.49-.1-.22A5,5,0,0,0,27,9.38a6.07,6.07,0,0,0-3.3-1.3V6.85H22.48V8c-.35,0-.67,0-1,0V6.85H20.31V8.1a8.49,8.49,0,0,0-1.22.25,6.31,6.31,0,0,0-2.08,1,4,4,0,0,0-1.24,1.5,4.24,4.24,0,0,0-.39,1.78,6.23,6.23,0,0,0,.08,1l-1.39-.24a5.29,5.29,0,0,1-.42-3.06,9.85,9.85,0,0,1,1.51-3.88l.13-.2-1-.63-.13.2a11,11,0,0,0-1.68,4.36,6,6,0,0,0,.74,4.1l.14.2,2.52.43a3.85,3.85,0,0,0,.77,1H9.82c-.65-1-2.86-5.17.21-10.66L10.14,5l-1-.58L9,4.65a12.09,12.09,0,0,0-1.47,8.72A9.47,9.47,0,0,0,9,16.85Z"/><path class="cls-1" d="M36.9,20.35l-.06-.43-7.71-1.25a5.2,5.2,0,0,0-.31-1.59H35l.18-.23a9.47,9.47,0,0,0,1.52-3.48A12.09,12.09,0,0,0,35.2,4.65l-.12-.21L34,5l.12.21a10.88,10.88,0,0,1,1.35,7.84,9,9,0,0,1-1.15,2.82H28a3.93,3.93,0,0,0-.57-.45l-.27-.16,3.68-.82.13-.19c.09-.13,2.28-3.31-.94-8.46l-.13-.2-1,.63.13.2c2.4,3.84,1.43,6.31,1.09,7L25.19,14.5l-3.08-.87A7.12,7.12,0,0,1,20.52,13c-.3-.18-.3-.34-.3-.41v-.24H19v.24a1.62,1.62,0,0,0,.89,1.44,8.11,8.11,0,0,0,1.86.73l3.13.88a7.21,7.21,0,0,1,1.88.78,2.26,2.26,0,0,1,.88,1A4.36,4.36,0,0,1,28,19.16a3.29,3.29,0,0,1-1.37,2.71A7,7,0,0,1,22.23,23a9.79,9.79,0,0,1-2.62-.33,5.92,5.92,0,0,1-1.94-.91A3.87,3.87,0,0,1,16,18.62v-.24l-1.19,0v.24s0,.08,0,.11L7.35,19.91l-.06.44a16.19,16.19,0,0,0,.07,4.29,11.79,11.79,0,0,0,3.89,7.52l.18.15.77-.91L12,31.24C8.16,28,8.3,22.45,8.42,21l6.62-1a4.89,4.89,0,0,0,.39,1A5,5,0,0,0,16.19,22l-3.42,1.25v.41a15.88,15.88,0,0,0,4.39,10.13l.16.18.88-.8L18,33A15.34,15.34,0,0,1,14,24.11l3.28-1.2a7.33,7.33,0,0,0,2,.9,11,11,0,0,0,2.94.37A8.52,8.52,0,0,0,27,23l3.19,1.1a14,14,0,0,1-1.44,5A16.88,16.88,0,0,1,26.15,33L26,33.2l.88.8.16-.18a18.07,18.07,0,0,0,2.81-4.13,14.23,14.23,0,0,0,1.58-6v-.42L28,22.11a4.33,4.33,0,0,0,1-2.24l6.68,1.08c.12,1.5.26,7.05-3.59,10.29l-.18.15.77.91.18-.15a11.79,11.79,0,0,0,3.89-7.52A16.2,16.2,0,0,0,36.9,20.35Z"/><rect class="cls-1" x="21.59" y="24.97" width="1.19" height="1.85"/><path class="cls-1" d="M63.26,16.36a1.83,1.83,0,0,0-.65-1.26A2.63,2.63,0,0,0,61,14.71a3.8,3.8,0,0,0-1.54.24.84.84,0,0,0-.52.83.92.92,0,0,0,.52.81,6.7,6.7,0,0,0,1.51.58l2.74.78a6.79,6.79,0,0,1,1.79.75,2.51,2.51,0,0,1,1,1.08,4.31,4.31,0,0,1,.29,1.74,3.41,3.41,0,0,1-1.4,2.78,6.58,6.58,0,0,1-4.14,1.11,9.06,9.06,0,0,1-2.44-.31,5.69,5.69,0,0,1-1.87-.88,3.91,3.91,0,0,1-1.64-3.16h3.41a1.57,1.57,0,0,0,.7,1.37,3.13,3.13,0,0,0,1.82.48,4,4,0,0,0,1.61-.29,1,1,0,0,0,.67-.9,1.07,1.07,0,0,0-.5-1,5.16,5.16,0,0,0-1.51-.53,19.86,19.86,0,0,1-2.95-.85,6.2,6.2,0,0,1-1.74-1A2.69,2.69,0,0,1,56,17.2a4.4,4.4,0,0,1-.22-1.42,3.18,3.18,0,0,1,.29-1.35A3,3,0,0,1,57,13.31a5,5,0,0,1,1.65-.78,9.15,9.15,0,0,1,2.49-.29,5.88,5.88,0,0,1,3.94,1.09,4.21,4.21,0,0,1,1.37,3Z"/><path class="cls-1" d="M67.6,31V12.57h3.18l0,1.52a3.81,3.81,0,0,1,3.48-1.86,5.18,5.18,0,0,1,2.17.46A4.75,4.75,0,0,1,78.18,14a6.42,6.42,0,0,1,1.12,2.11A9.08,9.08,0,0,1,79.7,19a9.32,9.32,0,0,1-.34,2.61,6.16,6.16,0,0,1-1,2,4.53,4.53,0,0,1-1.61,1.33,4.85,4.85,0,0,1-2.17.47,4.35,4.35,0,0,1-3.71-2V31Zm5.9-8.41q2.85,0,2.85-3.86A4.45,4.45,0,0,0,75.56,16a2.43,2.43,0,0,0-2-1.05,2.47,2.47,0,0,0-2,1,4,4,0,0,0-.8,2.59Q70.73,22.59,73.5,22.59Z"/><path class="cls-1" d="M80.84,11.08V8h3.3v3.08Zm0,14V12.57h3.3v12.5Z"/><path class="cls-1" d="M94.21,25.08l0-1.52a3.81,3.81,0,0,1-3.48,1.86A5.15,5.15,0,0,1,88.52,25a4.77,4.77,0,0,1-1.7-1.32,6.4,6.4,0,0,1-1.12-2.11,9.06,9.06,0,0,1-.41-2.82,9.32,9.32,0,0,1,.34-2.6,6.15,6.15,0,0,1,1-2,4.54,4.54,0,0,1,1.61-1.33,4.85,4.85,0,0,1,2.17-.47,4.35,4.35,0,0,1,3.71,2V8h3.25V25.08Zm-2.74-2.36a2.47,2.47,0,0,0,2-1,4,4,0,0,0,.8-2.59q0-4.07-2.77-4.07t-2.85,3.86a4.45,4.45,0,0,0,.79,2.73A2.43,2.43,0,0,0,91.47,22.71Z"/><path class="cls-1" d="M106.66,23.43a2.6,2.6,0,0,1-1.28,1.31,4.57,4.57,0,0,1-2.1.47,5.13,5.13,0,0,1-1.83-.32A4.13,4.13,0,0,1,100,24a4.24,4.24,0,0,1-1-1.42,4.83,4.83,0,0,1-.34-1.87V12.57H102V20.2q0,2.34,2.11,2.34a2.57,2.57,0,0,0,1.84-.66,2.21,2.21,0,0,0,.7-1.68V12.57H110V25.41a6,6,0,0,1-.44,2.36,5,5,0,0,1-1.22,1.75,5.38,5.38,0,0,1-1.83,1.09,6.56,6.56,0,0,1-2.25.38,5.57,5.57,0,0,1-4.14-1.4,5.24,5.24,0,0,1-1.37-3.84h3.08a2.34,2.34,0,0,0,.65,1.75,2.67,2.67,0,0,0,1.94.64,2,2,0,0,0,.86-.19,2.33,2.33,0,0,0,.72-.53,2.56,2.56,0,0,0,.51-.85,3.16,3.16,0,0,0,.19-1.12Z"/><path class="cls-1" d="M122.44,16.8a4.08,4.08,0,0,1-4.08,4.09,4.08,4.08,0,1,1,4.08-4.09Zm-7.36,0a3.26,3.26,0,0,0,3.29,3.27,3.29,3.29,0,0,0,3.32-3.3,3.3,3.3,0,0,0-6.61,0Zm3.39-1.34a1.33,1.33,0,1,0,0,2.65,1.66,1.66,0,0,0,1.09-.47l.47.52a2.33,2.33,0,0,1-1.61.68,2,2,0,1,1,0-4.09,2.28,2.28,0,0,1,1.57.66l-.47.56A1.57,1.57,0,0,0,118.47,15.48Z"/><rect class="cls-1" x="46.44" y="16" width="1" height="5"/></g></svg>