<?xml version="1.0" encoding="utf-8"?>
<!-- Generator: Adobe Illustrator 21.0.0, SVG Export Plug-In . SVG Version: 6.00 Build 0)  -->
<svg version="1.1" id="Logo_x5F_Table" xmlns="http://www.w3.org/2000/svg" xmlns:xlink="http://www.w3.org/1999/xlink" x="0px"
	 y="0px" viewBox="0 0 550 200" style="enable-background:new 0 0 550 200;" xml:space="preserve">
<style type="text/css">
	.st0{fill:#74D1A4;}
	.st1{fill:#FFFFFF;}
	.st2{display:none;}
	.st3{display:inline;}
</style>
<g id="copyright" class="st2">
</g>
<g>
	<g>
		<path class="st0" d="M289.4,85.2c-0.4-2.7-1.4-4.7-3-5.9c-1.6-1.2-4.1-1.9-7.5-1.9c-3.2,0-5.6,0.4-7.2,1.1
			c-1.6,0.8-2.4,2.1-2.4,3.9c0,1.6,0.8,2.9,2.4,3.8c1.6,1,4,1.9,7.1,2.7c5.1,1.4,9.4,2.6,12.9,3.6c3.5,1,6.3,2.2,8.4,3.5
			c2.1,1.4,3.6,3,4.5,5.1c0.9,2,1.4,4.8,1.4,8.2c0,5.3-2.2,9.6-6.6,13.1c-4.4,3.5-10.9,5.2-19.5,5.2c-4.2,0-8-0.5-11.5-1.4
			c-3.4-1-6.4-2.3-8.8-4.1c-2.4-1.8-4.3-3.9-5.6-6.4c-1.3-2.5-2-5.3-2.1-8.4h16c0,2.8,1.1,4.9,3.3,6.4c2.2,1.5,5,2.3,8.5,2.3
			c2.9,0,5.5-0.5,7.6-1.4c2.1-0.9,3.2-2.3,3.2-4.2c0-2.2-0.8-3.7-2.3-4.7c-1.6-1-3.9-1.8-7.1-2.5c-5.7-1.3-10.4-2.6-13.9-4
			c-3.5-1.4-6.2-2.9-8.2-4.6c-2-1.7-3.3-3.5-3.9-5.5c-0.7-2-1-4.2-1-6.7c0-2.2,0.5-4.3,1.4-6.3c0.9-2,2.4-3.7,4.4-5.3
			c2-1.5,4.6-2.7,7.8-3.6c3.2-0.9,7.1-1.4,11.7-1.4c8.4,0,14.6,1.7,18.5,5.1c3.9,3.4,6.1,8.2,6.5,14.2H289.4z"/>
	</g>
	<g>
		<path class="st0" d="M309.9,154V67.5h14.9l0.1,7.2c3.6-5.8,9-8.7,16.4-8.7c3.7,0,7.1,0.7,10.2,2.1c3.1,1.4,5.8,3.5,8.1,6.2
			c2.2,2.7,4,6,5.3,9.9c1.3,3.9,1.9,8.3,1.9,13.3c0,4.5-0.5,8.5-1.6,12.2c-1.1,3.7-2.6,6.9-4.7,9.6c-2.1,2.7-4.6,4.8-7.6,6.3
			c-3,1.5-6.4,2.2-10.2,2.2c-7.2,0-13.1-3.1-17.4-9.2V154H309.9z M337.6,114.5c8.9,0,13.4-6.1,13.4-18.2c0-5.3-1.2-9.5-3.7-12.8
			c-2.5-3.3-5.7-5-9.6-5c-3.7,0-6.9,1.6-9.4,4.7c-2.5,3.1-3.8,7.2-3.8,12.2C324.5,108.1,328.9,114.5,337.6,114.5z"/>
	</g>
	<g>
		<path class="st0" d="M372.1,60.4V46h15.5v14.5H372.1z M372.1,126.2V67.5h15.5v58.8H372.1z"/>
	</g>
	<g>
		<path class="st0" d="M434.9,126.2l-0.1-7.2c-3.6,5.8-9,8.7-16.4,8.7c-3.7,0-7.2-0.7-10.3-2.2c-3.1-1.4-5.8-3.5-8-6.2
			c-2.2-2.7-4-6-5.3-9.9c-1.3-3.9-1.9-8.3-1.9-13.3c0-4.5,0.5-8.5,1.6-12.2c1.1-3.7,2.6-6.9,4.7-9.6c2.1-2.7,4.6-4.8,7.6-6.3
			c3-1.5,6.4-2.2,10.2-2.2c7.2,0,13.1,3.1,17.4,9.2V46h15.3v80.3H434.9z M422,115.1c3.7,0,6.9-1.6,9.4-4.7c2.5-3.1,3.8-7.2,3.8-12.2
			c0-12.7-4.3-19.1-13-19.1c-8.9,0-13.4,6.1-13.4,18.2c0,5.3,1.2,9.5,3.7,12.8C414.9,113.5,418.1,115.1,422,115.1z"/>
	</g>
	<g>
		<path class="st0" d="M493.4,118.5c-1.1,2.6-3.1,4.7-6,6.2c-2.9,1.5-6.2,2.2-9.9,2.2c-3.1,0-6-0.5-8.6-1.5c-2.6-1-4.9-2.4-6.8-4.3
			c-1.9-1.9-3.4-4.1-4.5-6.7c-1.1-2.6-1.6-5.5-1.6-8.8V67.5h15.5v35.8c0,7.3,3.3,11,9.9,11c3.6,0,6.5-1,8.7-3.1
			c2.2-2.1,3.3-4.7,3.3-7.9V67.5H509v60.3c0,4.1-0.7,7.8-2.1,11.1c-1.4,3.3-3.3,6-5.7,8.2c-2.4,2.2-5.3,3.9-8.6,5.1
			c-3.3,1.2-6.8,1.8-10.6,1.8c-8.7,0-15.2-2.2-19.5-6.6c-4.3-4.4-6.4-10.4-6.4-18h14.5c0,3.5,1,6.3,3,8.2c2,2,5.1,3,9.1,3
			c1.4,0,2.8-0.3,4.1-0.9c1.3-0.6,2.4-1.4,3.4-2.5c1-1.1,1.8-2.4,2.4-4c0.6-1.6,0.9-3.3,0.9-5.3V118.5z"/>
	</g>
</g>
<g>
	<path class="st0" d="M40.8,89.6l0.9,1.2H84c0.5,0.2,1,0.5,1.6,0.7c4,1.6,9.2,3.1,15.6,4.5c3.1,0.7,5.4,1.5,6.8,2.4
		c0.4,0.2,1.1,0.7,1.1,2.4v1.5h6.2v-1.5c0-3.4-1.4-6.1-4-7.7c-2-1.2-4.9-2.3-8.7-3.1c-6.1-1.3-11-2.8-14.7-4.2
		c-0.7-0.3-1.3-0.6-2-0.8l-0.3-0.1c-2.4-1.1-4.4-2.3-5.8-3.5c-1.7-1.5-2.8-3-3.4-4.6c-0.6-1.8-0.9-4-0.9-6.3c0-2,0.4-3.9,1.2-5.6
		c0.8-1.7,2.1-3.2,3.8-4.6c1.9-1.4,4.4-2.6,7.5-3.5c3.2-0.9,7.2-1.4,11.9-1.4c8.4,0,14.5,1.6,18.2,4.8c1.8,1.6,3.2,3.5,4.2,5.6
		l0.6,1.4l5.7-2.6l-0.6-1.4c-1.4-3-3.3-5.6-5.7-7.7c-3.5-3.1-8.5-5.1-14.7-5.9v-5.6h-6.2v5.2c-1.2,0-2.4,0-3.6,0v-5.2h-6.2v5.7
		c-1.9,0.3-3.6,0.6-5.2,1.1c-3.8,1.1-7,2.6-9.5,4.5c-2.6,2-4.5,4.3-5.7,6.9c-1.2,2.6-1.8,5.3-1.8,8.2c0,1.4,0.1,2.8,0.3,4.1
		l-5.5-0.9c-0.9-1.9-2.7-6.6-1.8-13.3c0.7-5.5,3-11.4,6.8-17.3l0.8-1.3l-5.3-3.3l-0.8,1.3c-4.2,6.8-6.8,13.4-7.7,19.8
		c-1.5,11.7,3.2,18.5,3.4,18.8l0.7,1l11.3,1.9c0.7,1.3,1.6,2.5,2.7,3.6H44.9c-3-4.8-12.4-23.2,1.1-47.5l0.7-1.3l-5.4-3l-0.7,1.3
		c-9.2,16.6-8.7,30.7-6.7,39.6C36.1,83.5,40.6,89.3,40.8,89.6z"/>
	<path class="st0" d="M167.2,105l-0.3-2.3l-34.7-5.6c-0.2-2.4-0.6-4.6-1.2-6.4h27.3l0.9-1.2c0.2-0.2,4.7-6.1,6.9-15.9
		c2.1-8.9,2.6-23.1-6.7-39.6l-0.7-1.3l-5.4,3l0.7,1.3c6.6,11.9,8.6,23.7,6.1,35.1c-1.4,6-3.7,10.3-5,12.4h-28.3
		c-0.8-0.7-1.6-1.4-2.5-2c-0.1-0.1-0.2-0.1-0.3-0.2l15.7-3.5l0.7-1c0.4-0.6,10.5-15.1-4.2-38.6l-0.8-1.3l-5.3,3.3l0.8,1.3
		c10.5,16.8,6.6,27.7,5,30.8l-21.9,4.9c-3.8-1.1-8.4-2.4-13.8-3.9c-3.1-0.9-5.5-1.8-7-2.7c-1.1-0.7-1.1-1.2-1.1-1.5v-1.5h-6.2v1.5
		c0,2.8,1.5,5.3,4.2,6.9c2,1.2,4.8,2.3,8.5,3.3c5.6,1.6,10.3,2.9,14.1,4c3.5,1,6.3,2.2,8.4,3.5c1.8,1.2,3.1,2.5,3.8,4.2
		c0.8,1.8,1.2,4.4,1.2,7.7c0,4.8-2,8.7-6,11.9c-4.2,3.3-10.7,5-19.4,5c-4.3,0-8.3-0.5-11.7-1.5c-3.4-0.9-6.3-2.3-8.6-4
		c-2.3-1.7-4-3.7-5.2-6c-1.2-2.3-1.9-4.9-1.9-7.8l0-1.5l-6.2,0.2l0,1.5c0,0,0,0.1,0,0.1l-33.8,5.1l-0.3,2.3
		c-0.1,0.4-1.2,8.7,0.3,19.5c2.1,14.4,8.2,26.2,17.7,34.2l1.1,1l4-4.8l-1.1-1c-16.9-14.2-16.6-38.5-16.1-45.7l29.2-4.4
		c0.4,1.5,1,2.9,1.7,4.3c0.8,1.6,1.9,3.1,3.1,4.5L57.5,118l0,2.1c0,1-0.2,23.6,19.9,46l1,1.1l4.6-4.2l-1-1.1
		c-14.9-16.6-17.7-33.4-18.2-39.6l14.3-5.2c2.7,1.7,5.7,3,9.2,4c4,1.1,8.5,1.7,13.4,1.7c9.1,0,16.4-1.8,21.7-5.2l13.9,4.8
		c-0.3,4-1.6,12.3-6.4,22.3c-3,6.2-7,12-11.8,17.3l-1,1.1l4.6,4.2l1-1.1c5.2-5.7,9.5-12,12.7-18.7c7.3-14.9,7.2-26.8,7.2-27.3l0-2.2
		l-14.9-5.1c2.3-2.8,3.7-5.9,4.3-9.4l29.4,4.7c0.5,7.2,0.9,31.5-16.1,45.7l-1.1,1l4,4.8l1.1-1c9.5-8,15.6-19.8,17.7-34.2
		C168.4,113.7,167.2,105.4,167.2,105z"/>
	<rect x="97.3" y="125.4" class="st0" width="6.2" height="9.2"/>
</g>
<g>
	<rect x="210.5" y="83" class="st0" width="7" height="30"/>
</g>
</svg>
