<svg id="Layer_9" data-name="Layer 9" xmlns="http://www.w3.org/2000/svg" viewBox="0 0 80 80"><defs><style>.cls-1{fill:#74cc9f;}.cls-2{fill:#fff;}</style></defs><title>Design_page</title><rect class="cls-1" width="80" height="80"/><path class="cls-2" d="M20.07,36.39l.27.35H34.62l.56.24a35.56,35.56,0,0,0,5.27,1.52,8.2,8.2,0,0,1,2.35.82,1,1,0,0,1,.43,1v.36h1.82v-.36a2.75,2.75,0,0,0-1.29-2.5,9.73,9.73,0,0,0-2.91-1,33.85,33.85,0,0,1-5-1.44l-.45-.19v-.18H35a8.55,8.55,0,0,1-1.93-1.18A3.82,3.82,0,0,1,31.9,32.1a6.79,6.79,0,0,1-.33-2.18A4.66,4.66,0,0,1,32,28a4.28,4.28,0,0,1,1.34-1.6,7.85,7.85,0,0,1,2.58-1.2A15.09,15.09,0,0,1,40,24.68c2.88,0,5,.56,6.25,1.68a5.75,5.75,0,0,1,1.45,2l.15.33,1.66-.75-.15-.33A7.56,7.56,0,0,0,47.44,25a9.26,9.26,0,0,0-5-2V21.12H40.59v1.75c-.53,0-1,0-1.5,0V21.12H37.28V23a13,13,0,0,0-1.87.38,9.63,9.63,0,0,0-3.17,1.5,6.07,6.07,0,0,0-1.89,2.29,6.47,6.47,0,0,0-.59,2.72,9.51,9.51,0,0,0,.12,1.55l-2.12-.36a8.07,8.07,0,0,1-.64-4.66,15,15,0,0,1,2.31-5.93l.19-.31-1.54-1-.19.31a16.83,16.83,0,0,0-2.57,6.66,9.12,9.12,0,0,0,1.13,6.25l.22.31,3.84.65a5.88,5.88,0,0,0,1.18,1.5H21.27c-1-1.55-4.36-7.88.32-16.28l.18-.32-1.59-.88-.18.32a18.45,18.45,0,0,0-2.24,13.32A14.46,14.46,0,0,0,20.07,36.39Z"/><path class="cls-2" d="M62.61,41.72l-.1-.66-11.77-1.9a7.94,7.94,0,0,0-.47-2.42h9.39l.27-.35a14.46,14.46,0,0,0,2.32-5.31A18.45,18.45,0,0,0,60,17.76l-.18-.32-1.59.88.18.32a16.61,16.61,0,0,1,2.07,12,13.67,13.67,0,0,1-1.75,4.3H49a6,6,0,0,0-.88-.68L47.75,34l5.61-1.25.2-.28c.14-.2,3.49-5-1.44-12.91l-.19-.31-1.54,1,.19.31c3.67,5.86,2.18,9.63,1.66,10.62L44.72,32.8,40,31.47a10.88,10.88,0,0,1-2.42-.93c-.46-.27-.46-.51-.46-.63v-.36H35.32v.36a2.47,2.47,0,0,0,1.36,2.2,12.38,12.38,0,0,0,2.84,1.11l4.77,1.35a11,11,0,0,1,2.87,1.19,3.44,3.44,0,0,1,1.34,1.49,6.66,6.66,0,0,1,.43,2.66A5,5,0,0,1,46.86,44c-1.45,1.15-3.69,1.73-6.64,1.73a15,15,0,0,1-4-.5,9,9,0,0,1-3-1.38,5.9,5.9,0,0,1-2.48-4.8v-.36l-1.82,0v.36q0,.09,0,.18L17.49,41.05l-.1.67a24.72,24.72,0,0,0,.11,6.54,18,18,0,0,0,5.93,11.47l.28.23,1.17-1.39-.28-.23c-5.87-4.93-5.66-13.41-5.48-15.7l10.11-1.54a7.46,7.46,0,0,0,.6,1.54A7.64,7.64,0,0,0,31,44.29l-5.22,1.91v.62c0,.32-.08,7.94,6.7,15.46l.24.27,1.35-1.22-.24-.27a23.42,23.42,0,0,1-6.2-13.6l5-1.83A11.19,11.19,0,0,0,35.72,47a16.75,16.75,0,0,0,4.49.56,13,13,0,0,0,7.31-1.78l4.88,1.69a21.35,21.35,0,0,1-2.2,7.7,25.77,25.77,0,0,1-4,5.89l-.24.27,1.35,1.22.24-.27A27.58,27.58,0,0,0,51.83,56a21.73,21.73,0,0,0,2.41-9.16v-.63l-5.14-1.78A6.61,6.61,0,0,0,50.68,41l10.19,1.65c.18,2.28.4,10.77-5.48,15.71l-.28.23L56.28,60l.28-.23A18,18,0,0,0,62.5,48.26,24.72,24.72,0,0,0,62.61,41.72Z"/><rect class="cls-2" x="39.23" y="48.78" width="1.82" height="2.82"/></svg>