<svg id="Logo_Table" xmlns="http://www.w3.org/2000/svg" viewBox="0 0 500 500"><defs><style>.cls-1{fill:#74d1a4;}.cls-2{fill:#fff;}</style></defs><title>Spidy_Logo_Copyright</title><g id="background"><rect class="cls-1" x="-23.5" y="-36" width="547" height="573.55"/></g><g id="logo_green"><path class="cls-2" d="M158.93,384.87a8.61,8.61,0,0,0-3-5.91q-2.45-1.85-7.47-1.85a17.85,17.85,0,0,0-7.23,1.13,4,4,0,0,0-2.45,3.88,4.31,4.31,0,0,0,2.45,3.82,31.47,31.47,0,0,0,7.11,2.75l12.9,3.64a31.91,31.91,0,0,1,8.42,3.52,11.78,11.78,0,0,1,4.54,5.08,20.24,20.24,0,0,1,1.37,8.18A16,16,0,0,1,169,422.19q-6.57,5.2-19.47,5.2A42.58,42.58,0,0,1,138,426a26.73,26.73,0,0,1-8.78-4.12,18.38,18.38,0,0,1-7.7-14.87h16a7.37,7.37,0,0,0,3.28,6.45,14.72,14.72,0,0,0,8.54,2.27,19,19,0,0,0,7.58-1.37q3.16-1.37,3.17-4.24a5,5,0,0,0-2.33-4.66,24.26,24.26,0,0,0-7.11-2.51,93.34,93.34,0,0,1-13.86-4,29.13,29.13,0,0,1-8.18-4.6,12.66,12.66,0,0,1-3.94-5.5,20.66,20.66,0,0,1-1-6.69,15,15,0,0,1,1.37-6.33,13.91,13.91,0,0,1,4.36-5.26,23.48,23.48,0,0,1,7.76-3.64,43,43,0,0,1,11.71-1.37q12.66,0,18.51,5.14t6.45,14.21Z"/><path class="cls-2" d="M179.35,453.67v-86.6h14.93l.12,7.17q5.37-8.72,16.36-8.72A24.35,24.35,0,0,1,221,367.67a22.35,22.35,0,0,1,8.06,6.21,30.16,30.16,0,0,1,5.26,9.91A42.67,42.67,0,0,1,236.21,397a43.8,43.8,0,0,1-1.61,12.24,28.94,28.94,0,0,1-4.72,9.61,21.31,21.31,0,0,1-7.58,6.27,22.79,22.79,0,0,1-10.21,2.21q-10.87,0-17.44-9.2v35.48Zm27.71-39.54q13.38,0,13.38-18.16,0-7.88-3.7-12.84a11.42,11.42,0,0,0-9.56-5,11.59,11.59,0,0,0-9.38,4.66Q194,387.49,194,395,194,414.13,207.06,414.13Z"/><path class="cls-2" d="M241.58,360V345.57h15.53V360Zm0,65.81V367.07h15.53v58.77Z"/><path class="cls-2" d="M304.41,425.84l-.12-7.17q-5.38,8.72-16.36,8.72a24.22,24.22,0,0,1-10.27-2.15,22.42,22.42,0,0,1-8-6.21,30.06,30.06,0,0,1-5.26-9.91,42.6,42.6,0,0,1-1.91-13.26,43.8,43.8,0,0,1,1.61-12.24,28.9,28.9,0,0,1,4.72-9.62,21.34,21.34,0,0,1,7.58-6.27,22.79,22.79,0,0,1,10.21-2.21q10.87,0,17.44,9.2V345.57h15.29v80.27Zm-12.9-11.11a11.59,11.59,0,0,0,9.38-4.66q3.76-4.66,3.76-12.18,0-19.11-13-19.11-13.38,0-13.38,18.16,0,7.88,3.7,12.84A11.42,11.42,0,0,0,291.51,414.73Z"/><path class="cls-2" d="M362.93,418.07a12.23,12.23,0,0,1-6,6.15,21.49,21.49,0,0,1-9.85,2.21,24.1,24.1,0,0,1-8.6-1.49,19.43,19.43,0,0,1-6.81-4.3,20,20,0,0,1-4.48-6.69,22.7,22.7,0,0,1-1.61-8.78v-38.1h15.53V402.9q0,11,9.91,11a12.09,12.09,0,0,0,8.66-3.11,10.39,10.39,0,0,0,3.28-7.88V367.07h15.53v60.32a28.09,28.09,0,0,1-2.09,11.11,23.62,23.62,0,0,1-5.73,8.24,25.28,25.28,0,0,1-8.6,5.14,30.85,30.85,0,0,1-10.57,1.79q-13,0-19.47-6.57t-6.45-18H340q0,5.25,3,8.24t9.14,3a9.45,9.45,0,0,0,4.06-.9,11,11,0,0,0,3.4-2.51,12,12,0,0,0,2.39-4,14.84,14.84,0,0,0,.9-5.26Z"/><path class="cls-2" d="M149.45,139.72l.84,1.08H222.9c1,.46,2.08.91,3.18,1.34a180.26,180.26,0,0,0,26.7,7.72c5.71,1.28,10,2.77,12.63,4.41,1.33.82,3.09,2.37,3.09,6.46h5.59c0-6.35-3.12-9.6-5.75-11.21-3.24-2-7.92-3.66-14.34-5.11a175,175,0,0,1-25.85-7.46c-1.22-.49-2.38-1-3.5-1.49v-.25h-.55a46.15,46.15,0,0,1-10.68-6.51,21.39,21.39,0,0,1-6.65-9.2A36.62,36.62,0,0,1,205,107.72a25.74,25.74,0,0,1,2.35-10.84A23.76,23.76,0,0,1,214.77,88a42,42,0,0,1,13.8-6.45A79.1,79.1,0,0,1,250,79c15.23,0,26.42,3,33.27,9a31.31,31.31,0,0,1,7.9,10.67l5.09-2.31a36.87,36.87,0,0,0-9.31-12.56c-6.12-5.37-15-8.68-26.41-9.89V64.52H255v9c-1.61-.07-3.25-.12-5-.12q-3.35,0-6.46.17V64.52H238v9.55A67,67,0,0,0,227,76.15a47.47,47.47,0,0,0-15.64,7.37,29.27,29.27,0,0,0-9.11,11,31.28,31.28,0,0,0-2.86,13.17A44.8,44.8,0,0,0,200.54,118l-14.43-2.45c-1.57-2.8-5.76-11.86-3.92-25.81,1.31-9.94,5.38-20.41,12.09-31.12l-4.73-3C182.41,67,178.07,78.24,176.65,89c-2.54,19.25,5.13,30.25,5.46,30.71l.67.94L202.61,124a28.45,28.45,0,0,0,7.17,9c.9.77,1.89,1.52,2.95,2.27H153.09c-4.3-6.38-24.43-40.51,1-86.16l-4.88-2.72c-15.59,28-14.75,51.82-11.29,66.89C141.69,129.63,149.13,139.31,149.45,139.72Z"/><path class="cls-2" d="M364,168.45l-.3-2-60.44-9.76c-.19-5.84-1.13-10.69-2.81-14.42-.22-.49-.47-1-.72-1.45h50.08l.84-1.08c.32-.4,7.76-10.08,11.53-26.49,3.46-15.07,4.3-38.91-11.29-66.89L346,49.05c11.77,21.13,15.4,42.21,10.78,62.66a71.12,71.12,0,0,1-9.79,23.5H295.54a28.39,28.39,0,0,0-4.73-3.79,47.38,47.38,0,0,0-6.66-3.48l33.22-7.38.62-.87c.71-1,17.14-24.83-7.43-64.06l-4.73,3c20.24,32.32,10.69,52.65,8.15,57l-39.51,8.78,0,.16-.41-.12-24.47-6.91a57.37,57.37,0,0,1-12.82-4.93c-2.92-1.71-3.26-3.58-3.26-4.84H228c0,2.8,1,6.75,6,9.66a61.69,61.69,0,0,0,14.13,5.49q14.49,4.08,24.46,6.91a58.14,58.14,0,0,1,15.22,6.34,19.46,19.46,0,0,1,7.57,8.43c1.56,3.47,2.36,8.31,2.36,14.37,0,9.15-3.73,16.55-11.4,22.61s-19.6,9.25-35.19,9.25a78.4,78.4,0,0,1-21-2.62,48.17,48.17,0,0,1-15.74-7.37,32.07,32.07,0,0,1-13.48-26l-5.58.14c0,.85.07,1.69.14,2.53l-59.08,9-.3,2a124.84,124.84,0,0,0,.56,33c3.55,24.32,13.83,44.24,29.75,57.61l3.59-4.28c-32-26.9-29.59-73.24-28.61-83.47L196.31,163a36.81,36.81,0,0,0,3.3,9.14,37.69,37.69,0,0,0,7.68,10L179,192.48l0,1.91c0,1.61-.38,39.92,33.83,77.93l4.15-3.74c-28.48-31.65-31.93-64.17-32.34-72.21l27.8-10.17a54.79,54.79,0,0,0,16.23,7.33,84,84,0,0,0,22.5,2.82c15.95,0,28.43-3.15,37.16-9.35l27.21,9.41c-.26,5.44-1.88,21.83-11.55,41.57a133.86,133.86,0,0,1-20.8,30.59l4.15,3.74A139.45,139.45,0,0,0,309,240.45c12.42-25.36,12.18-45.23,12.16-46.06l0-1.95-27.83-9.62a32.37,32.37,0,0,0,9.87-20.52l55.57,9c1,10.2,3.43,56.58-28.61,83.49l3.59,4.28c15.92-13.37,26.21-33.29,29.75-57.61A124.84,124.84,0,0,0,364,168.45Z"/><rect class="cls-2" x="247.97" y="204.35" width="5.59" height="10.71"/><rect class="cls-2" x="228.88" y="309.09" width="43.29" height="5.59"/></g></svg>